HIERARCHY
ROOT pelvis
{
	OFFSET 0.000000 0.000000 0.730297
	CHANNELS 6 Xposition Yposition Zposition Xrotation Yrotation Zrotation
	JOINT spine
	{
		OFFSET 0.000000 0.000000 0.000000
		CHANNELS 6 Xposition Yposition Zposition Xrotation Yrotation Zrotation
		JOINT spine.001
		{
			OFFSET 0.000000 -0.013971 0.266578
			CHANNELS 3 Xrotation Yrotation Zrotation
			JOINT neck
			{
				OFFSET 0.000000 0.032532 0.264954
				CHANNELS 6 Xposition Yposition Zposition Xrotation Yrotation Zrotation
				JOINT face
				{
					OFFSET 0.000000 0.003730 0.213700
					CHANNELS 6 Xposition Yposition Zposition Xrotation Yrotation Zrotation
					End Site
					{
						OFFSET 0.000000 -0.028163 -0.007763
					}
				}
			}
			JOINT shoulder.L
			{
				OFFSET 0.000000 0.032532 0.264954
				CHANNELS 6 Xposition Yposition Zposition Yrotation Xrotation Zrotation
				JOINT upper_arm.L
				{
					OFFSET 0.164955 0.000000 0.000000
					CHANNELS 6 Xposition Yposition Zposition Xrotation Yrotation Zrotation
					JOINT forearm.L
					{
						OFFSET 0.279839 0.000115 0.000957
						CHANNELS 6 Xposition Yposition Zposition Xrotation Yrotation Zrotation
						End Site
						{
							OFFSET 0.243877 -0.004151 -0.001319
						}
					}
				}
			}
			JOINT shoulder.R
			{
				OFFSET 0.000000 0.032532 0.264954
				CHANNELS 6 Xposition Yposition Zposition Yrotation Xrotation Zrotation
				JOINT upper_arm.R
				{
					OFFSET -0.164955 0.000000 0.000000
					CHANNELS 6 Xposition Yposition Zposition Xrotation Yrotation Zrotation
					JOINT forearm.R
					{
						OFFSET -0.274111 0.000115 0.000957
						CHANNELS 6 Xposition Yposition Zposition Xrotation Yrotation Zrotation
						End Site
						{
							OFFSET -0.238797 -0.004062 -0.001318
						}
					}
				}
			}
		}
	}
	JOINT pelvis.L
	{
		OFFSET 0.000000 0.000000 0.000000
		CHANNELS 6 Xposition Yposition Zposition Yrotation Xrotation Zrotation
		End Site
		{
			OFFSET 0.110591 0.000000 0.000000
		}
	}
	JOINT pelvis.R
	{
		OFFSET 0.000000 0.000000 0.000000
		CHANNELS 6 Xposition Yposition Zposition Yrotation Xrotation Zrotation
		End Site
		{
			OFFSET -0.110591 0.000000 0.000000
		}
	}
	JOINT thigh.L
	{
		OFFSET 0.110591 0.000000 0.000000
		CHANNELS 6 Xposition Yposition Zposition Xrotation Yrotation Zrotation
		JOINT shin.L
		{
			OFFSET 0.018738 0.000000 -0.357535
			CHANNELS 6 Xposition Yposition Zposition Xrotation Yrotation Zrotation
			JOINT foot.L
			{
				OFFSET 0.015788 0.000000 -0.301246
				CHANNELS 3 Xrotation Yrotation Zrotation
				End Site
				{
					OFFSET 0.016159 -0.164762 -0.069186
				}
			}
			JOINT heel.02.L
			{
				OFFSET 0.015788 0.000000 -0.301246
				CHANNELS 3 Xrotation Yrotation Zrotation
				End Site
				{
					OFFSET -0.074831 0.034408 -0.074632
				}
			}
		}
	}
	JOINT thigh.R
	{
		OFFSET -0.110591 0.000000 0.000000
		CHANNELS 6 Xposition Yposition Zposition Xrotation Yrotation Zrotation
		JOINT shin.R
		{
			OFFSET -0.018180 0.000000 -0.346900
			CHANNELS 6 Xposition Yposition Zposition Xrotation Yrotation Zrotation
			JOINT foot.R
			{
				OFFSET -0.016204 0.000000 -0.309190
				CHANNELS 3 Xrotation Yrotation Zrotation
				End Site
				{
					OFFSET -0.017013 -0.173465 -0.072841
				}
			}
			JOINT heel.02.R
			{
				OFFSET -0.016204 0.000000 -0.309190
				CHANNELS 3 Xrotation Yrotation Zrotation
				End Site
				{
					OFFSET 0.070782 0.034408 -0.077117
				}
			}
		}
	}
}
MOTION
Frames: 10
Frame Time: 0.041667
-0.002978 0.033763 0.725789 -0.000000 0.000000 -0.691291 -0.000000 -0.000000 0.000000 -8.587865 0.477777 0.061154 9.989615 0.380021 3.096517 0.000000 0.032532 0.264955 8.317843 -0.598460 5.727266 0.000000 0.003730 0.213700 5.157969 0.000001 -0.000001 0.000000 0.032532 0.264955 0.787998 0.000666 -0.096722 0.164955 0.000000 0.000000 22.819293 75.483644 -29.223227 0.279839 0.000115 0.000957 1.617527 9.281082 -19.014922 0.000000 0.032532 0.264955 0.839588 0.000756 -0.103117 -0.164955 0.000000 0.000000 25.193971 -77.284663 31.234257 -0.274111 0.000115 0.000957 2.218389 -10.970295 22.073906 0.000000 0.000000 0.000000 -0.711593 -0.000000 0.000021 0.000000 0.000000 0.000000 -0.711624 -0.000000 0.000000 0.110583 -0.000000 0.001373 2.925845 1.911158 0.104649 0.018738 -0.000000 -0.357535 -1.993655 0.385654 -0.097801 -5.436741 -8.568820 16.483818 3.355286 -22.439200 -16.072057 -0.110583 0.000000 -0.001374 -0.538151 -1.119955 0.022954 -0.018180 -0.000000 -0.346900 7.900025 -3.236863 -0.191399 -10.747559 7.023154 -10.922567 -1.776514 26.085170 13.550014 
-0.001901 0.033802 0.725105 -0.000000 0.000000 0.296877 0.000000 -0.000000 0.000000 -8.627944 0.499340 0.064091 9.995266 0.258252 2.103798 -0.000000 0.032532 0.264954 8.313238 -0.660640 5.166861 0.000000 0.003730 0.213700 5.166714 0.000000 0.000000 0.000000 0.032532 0.264954 0.898831 0.000866 -0.110324 0.164955 0.000000 -0.000000 23.516227 75.695223 -29.990193 0.279839 0.000115 0.000957 1.499410 8.772333 -18.698381 0.000000 0.032532 0.264954 0.950382 0.000968 -0.116653 -0.164955 -0.000000 -0.000000 25.339642 -77.156747 31.479229 -0.274111 0.000115 0.000957 2.233310 -11.167507 21.788988 0.000000 0.000000 -0.000000 -0.798776 0.000000 0.000031 0.000000 0.000000 -0.000000 -0.798807 0.000000 0.000000 0.110581 0.000000 0.001542 2.621411 1.864648 0.094821 0.018738 -0.000000 -0.357535 -1.375090 0.447793 -0.066709 -4.750266 -7.638028 14.979981 2.887103 -22.140319 -15.439600 -0.110581 -0.000000 -0.001542 -0.513793 -0.901524 0.022894 -0.018180 -0.000000 -0.346900 7.767175 -3.454341 -0.173388 -9.813755 7.190449 -11.632325 -1.958821 25.756368 13.154662 
-0.001066 0.034045 0.724543 -0.000000 0.000000 1.100229 0.000000 -0.000000 0.000000 -8.642915 0.521342 0.066984 9.998214 0.161386 1.314526 -0.000000 0.032532 0.264954 8.310235 -0.716163 4.720710 0.000000 0.003730 0.213700 5.143481 -0.000000 0.000000 0.000000 0.032532 0.264954 0.986693 0.001044 -0.121166 0.164955 0.000000 -0.000000 24.118633 75.850808 -30.662037 0.279839 0.000115 0.000957 1.411006 8.374215 -18.478172 -0.000000 0.032532 0.264954 1.038286 0.001155 -0.127443 -0.164955 0.000000 -0.000000 25.395005 -77.073747 31.590865 -0.274111 0.000115 0.000957 2.249980 -11.334877 21.596092 0.000000 -0.000000 0.000000 -0.850012 -0.000000 -0.000010 0.000000 -0.000000 0.000000 -0.850043 0.000000 0.000000 0.110579 -0.000000 0.001641 2.360902 1.870305 0.085277 0.018738 -0.000000 -0.357535 -0.893282 0.438167 -0.043409 -4.378897 -6.963594 13.788570 2.569139 -21.960815 -15.025441 -0.110579 -0.000000 -0.001641 -0.466580 -0.768905 0.021330 -0.018180 -0.000000 -0.346900 7.629542 -3.556778 -0.163468 -9.110809 7.326158 -12.200437 -2.065630 25.302064 12.727041 
-0.000573 0.034492 0.724116 -0.000000 0.000000 1.651673 0.000000 -0.000000 0.000000 -8.630700 0.547584 0.070297 9.999333 0.096114 0.782819 -0.000000 0.032532 0.264954 8.305840 -0.774729 4.417547 0.000000 0.003730 0.213700 5.079007 -0.000000 0.000001 0.000000 0.032532 0.264954 1.041367 0.001162 -0.127802 0.164955 0.000000 -0.000000 24.550738 75.952865 -31.146322 0.279839 0.000115 0.000957 1.358294 8.120383 -18.379158 -0.000000 0.032532 0.264954 1.092999 0.001280 -0.134168 -0.164955 0.000000 -0.000000 25.449553 -77.040422 31.675135 -0.274111 0.000115 0.000957 2.262765 -11.447552 21.485268 0.000000 0.000000 0.000000 -0.852205 0.000000 -0.000060 0.000000 0.000000 0.000000 -0.852205 0.000000 0.000000 0.110579 0.000000 0.001645 2.157556 1.909805 0.077188 0.018738 0.000000 -0.357535 -0.566613 0.386773 -0.027788 -4.363414 -6.585911 13.012800 2.400140 -21.902304 -14.831156 -0.110579 0.000000 -0.001645 -0.415992 -0.740952 0.019118 -0.018180 -0.000000 -0.346900 7.518832 -3.529548 -0.162881 -8.678282 7.428855 -12.593350 -2.114494 24.809240 12.320870 
-0.000374 0.035009 0.723729 -0.000000 0.000000 2.020978 -0.000000 -0.000000 -0.000000 -8.606339 0.586195 0.075127 9.999901 0.051078 0.416043 -0.000000 0.032532 0.264955 8.298711 -0.852499 4.215885 0.000000 0.003730 0.213700 4.977622 0.000000 0.000002 -0.000000 0.032533 0.264955 1.065824 0.001215 -0.130738 0.164955 0.000000 0.000000 24.841309 76.036856 -31.462525 0.279839 0.000115 0.000957 1.329544 7.969806 -18.354909 -0.000000 0.032533 0.264955 1.117456 0.001337 -0.137115 -0.164955 0.000000 -0.000000 25.649939 -77.030395 31.925076 -0.274111 0.000115 0.000957 2.261854 -11.490484 21.385428 0.000000 0.000000 -0.000000 -0.815700 0.000001 0.000128 0.000000 0.000000 -0.000000 -0.815701 -0.000000 0.000000 0.110580 0.000000 0.001574 1.987288 1.936252 0.070636 0.018738 0.000000 -0.357535 -0.320962 0.351149 -0.015840 -4.466738 -6.372937 12.518911 2.307788 -21.901796 -14.747285 -0.110580 0.000000 -0.001574 -0.390320 -0.767834 0.017846 -0.018180 0.000000 -0.346900 7.465840 -3.455077 -0.166593 -8.403591 7.508250 -12.873000 -2.165085 24.447074 12.012881 
-0.000359 0.035513 0.723285 -0.000000 0.000000 2.319448 -0.000000 0.000000 -0.000000 -8.580620 0.639105 0.081762 9.999913 0.013228 0.107652 -0.000000 0.032532 0.264954 8.295675 -0.950870 4.067270 -0.000000 0.003730 0.213700 4.850555 0.000000 -0.000000 0.000000 0.032532 0.264954 1.068345 0.001224 -0.131160 0.164955 0.000000 -0.000000 25.088673 76.117629 -31.725928 0.279839 0.000115 0.000957 1.309867 7.865463 -18.341276 0.000000 0.032532 0.264955 1.119977 0.001346 -0.137561 -0.164955 0.000000 -0.000000 25.983699 -77.029227 32.332763 -0.274111 0.000115 0.000957 2.244255 -11.463309 21.264787 0.000000 0.000000 0.000000 -0.757053 -0.000000 0.000029 0.000000 0.000000 0.000000 -0.757053 -0.000000 -0.000000 0.110582 -0.000000 0.001461 1.824760 1.934378 0.064887 0.018738 0.000000 -0.357535 -0.106531 0.342311 -0.005265 -4.507490 -6.197011 12.133649 2.229994 -21.931963 -14.698451 -0.110582 0.000000 -0.001461 -0.391159 -0.797586 0.017783 -0.018180 0.000000 -0.346900 7.463962 -3.413989 -0.169236 -8.202708 7.581810 -13.108817 -2.237238 24.244250 11.805377 
-0.000431 0.035992 0.722805 -0.000000 0.000000 2.605762 0.000000 -0.000000 -0.000000 -8.555441 0.698532 0.089209 9.999861 -0.021559 -0.175721 -0.000000 0.032532 0.264954 8.301816 -1.052775 3.945941 -0.000000 0.003730 0.213700 4.715201 0.000000 0.000002 0.000000 0.032532 0.264955 1.056603 0.001195 -0.129698 0.164955 0.000000 0.000000 25.375058 76.189927 -32.041326 0.279839 0.000115 0.000957 1.289751 7.767471 -18.302691 0.000000 0.032532 0.264954 1.108193 0.001315 -0.136105 -0.164955 0.000000 -0.000000 26.301447 -77.047334 32.710053 -0.274111 0.000115 0.000957 2.216142 -11.384783 21.144435 0.000000 -0.000000 -0.000000 -0.688030 -0.000000 -0.000014 0.000000 -0.000000 -0.000000 -0.688030 -0.000000 0.000000 0.110583 -0.000000 0.001328 1.668894 1.923080 0.059510 0.018738 0.000000 -0.357535 0.068123 0.334421 0.003371 -4.487770 -6.024027 11.783532 2.148835 -22.008883 -14.680057 -0.110583 -0.000000 -0.001328 -0.400388 -0.811417 0.018155 -0.018180 -0.000000 -0.346900 7.483208 -3.427057 -0.168818 -8.077441 7.662110 -13.322556 -2.300910 24.098547 11.646865 
-0.000526 0.036447 0.722399 -0.000000 0.000000 2.873141 0.000000 0.000000 -0.000000 -8.529958 0.755094 0.096262 9.999801 -0.050989 -0.415182 -0.000000 0.032532 0.264954 8.304539 -1.140145 3.841637 0.000000 0.003730 0.213700 4.585748 0.000000 0.000002 0.000000 0.032532 0.264955 1.037454 0.001154 -0.127506 0.164955 0.000000 -0.000000 25.709544 76.258318 -32.417259 0.279839 0.000115 0.000957 1.265695 7.657254 -18.235485 0.000000 0.032532 0.264955 1.089048 0.001269 -0.133768 -0.164955 0.000000 -0.000000 26.509489 -77.093643 32.937747 -0.274111 0.000115 0.000957 2.185836 -11.285318 21.043885 0.000000 0.000000 0.000000 -0.616815 -0.000000 0.000058 0.000000 0.000000 0.000000 -0.616877 -0.000000 0.000000 0.110585 0.000000 0.001191 1.531240 1.918179 0.054667 0.018738 -0.000000 -0.357535 0.192049 0.315097 0.009538 -4.472827 -5.873034 11.476281 2.074757 -22.128379 -14.698782 -0.110585 0.000000 -0.001191 -0.409036 -0.812210 0.018545 -0.018180 -0.000000 -0.346900 7.503540 -3.471825 -0.166340 -8.032512 7.744653 -13.502238 -2.322891 23.931999 11.507678 
-0.000613 0.036884 0.722124 -0.000000 0.000000 3.098041 -0.000000 0.000000 -0.000000 -8.503576 0.805672 0.102521 9.999704 -0.073121 -0.595423 -0.000000 0.032532 0.264954 8.281228 -1.210690 3.757941 -0.000000 0.003730 0.213700 4.467291 0.000000 0.000001 0.000000 0.032532 0.264954 1.017403 0.001109 -0.124900 0.164955 0.000000 -0.000000 26.065366 76.335273 -32.813585 0.279839 0.000115 0.000957 1.239122 7.542062 -18.139796 -0.000000 0.032532 0.264954 1.069037 0.001223 -0.131233 -0.164955 -0.000000 -0.000000 26.637123 -77.155162 33.058904 -0.274111 0.000115 0.000957 2.157747 -11.186101 20.963917 0.000000 -0.000000 0.000000 -0.549431 -0.000000 0.000015 0.000000 -0.000000 0.000000 -0.549462 -0.000000 0.000000 0.110586 -0.000000 0.001061 1.412703 1.918770 0.050425 0.018738 -0.000000 -0.357535 0.287895 0.294770 0.014350 -4.482359 -5.755943 11.227845 2.020584 -22.247987 -14.735921 -0.110586 -0.000000 -0.001060 -0.423589 -0.807490 0.019221 -0.018180 -0.000000 -0.346900 7.523135 -3.519844 -0.163613 -8.024215 7.815914 -13.642580 -2.300859 23.745311 11.390597 
-0.000679 0.037335 0.721930 -0.000000 0.000000 3.279409 0.000000 0.000000 -0.000000 -8.476260 0.852240 0.108241 9.999377 -0.088417 -0.720226 0.000000 0.032532 0.264955 8.234117 -1.277496 3.709458 0.000000 0.003730 0.213700 4.359160 -0.000000 0.000004 0.000000 0.032532 0.264955 0.999197 0.001070 -0.122665 0.164955 0.000000 -0.000000 26.452049 76.417966 -33.243388 0.279839 0.000115 0.000957 1.213717 7.448184 -17.998583 0.000000 0.032532 0.264955 1.050789 0.001184 -0.129022 -0.164955 0.000000 -0.000000 26.733861 -77.209292 33.146327 -0.274111 0.000115 0.000957 2.132731 -11.090847 20.906074 0.000000 -0.000000 -0.000000 -0.490447 -0.000000 -0.000058 0.000000 -0.000000 -0.000000 -0.490447 -0.000000 -0.000000 0.110587 -0.000000 0.000947 1.301453 1.922878 0.046408 0.018738 -0.000000 -0.357535 0.388839 0.281777 0.019424 -4.497833 -5.666927 11.035136 1.985644 -22.332195 -14.765141 -0.110587 -0.000000 -0.000947 -0.451357 -0.804462 0.020493 -0.018180 0.000000 -0.346900 7.546254 -3.555932 -0.161734 -8.003535 7.872156 -13.760272 -2.256125 23.559592 11.293550 
